<svg xmlns="http://www.w3.org/2000/svg" viewBox="0 0 24 24">
  <path
    d="M21.6 12.23c0-.74-.07-1.46-.2-2.14H12v4.06h5.37a4.6 4.6 0 0 1-1.99 3.02v2.5h3.2c1.86-1.72 2.94-4.25 2.94-7.44Z"
    fill="#4285F4"
  />
  <path
    d="M12 22c2.7 0 4.96-.9 6.61-2.45l-3.2-2.5c-.9.6-2.03.95-3.41.95-2.62 0-4.84-1.77-5.64-4.14H3.06v2.6A9.98 9.98 0 0 0 12 22Z"
    fill="#34A853"
  />
  <path
    d="M6.36 13.86A5.99 5.99 0 0 1 6.05 12c0-.65.12-1.28.31-1.86v-2.6H3.06A9.97 9.97 0 0 0 2 12c0 1.6.38 3.1 1.06 4.46l3.3-2.6Z"
    fill="#FBBC05"
  />
  <path
    d="M12 5.99c1.47 0 2.78.5 3.82 1.5l2.86-2.86C16.95 3.03 14.69 2 12 2a9.98 9.98 0 0 0-8.94 5.54l3.3 2.6C7.16 7.76 9.38 5.99 12 5.99Z"
    fill="#EA4335"
  />
</svg>
